<svg width="31.000000" height="48.000000" viewBox="0 0 31 48" fill="none" xmlns="http://www.w3.org/2000/svg" xmlns:xlink="http://www.w3.org/1999/xlink">
	<desc>
			Created with Pixso.
	</desc>
	<defs>
		<clipPath id="clip2_5">
			<rect width="31.000000" height="48.000000" fill="white" fill-opacity="0"/>
		</clipPath>
	</defs>
	<rect width="31.000000" height="48.000000" fill="#FFFFFF" fill-opacity="0"/>
	<g clip-path="url(#clip2_5)">
		<path d="M5.63754 47.7888C4.8605 47.4229 4.52725 46.4956 4.89279 45.718C4.89279 45.7172 4.98294 45.5265 5.14963 45.1557C5.31546 44.7842 5.55533 44.2402 5.84274 43.5594C6.41763 42.1959 7.1864 40.2816 7.95297 38.0937C9.49057 33.7275 10.9962 28.2239 10.9856 24.0277C10.9856 23.5796 10.9696 23.1478 10.9356 22.7352C10.6644 19.226 8.651 14.8199 6.41357 11.0901C4.18509 7.34982 1.77231 4.24432 0.826447 3.0704C0.555786 2.73434 0.412506 2.56516 0.411774 2.56433C-0.142975 1.90842 -0.0608215 0.926239 0.595337 0.371765C1.2514 -0.183472 2.23203 -0.101257 2.78677 0.555389C2.81485 0.589417 5.38724 3.63358 8.07535 7.85825C10.7538 12.0997 13.5972 17.4574 14.0345 22.4805C14.0754 22.9873 14.0948 23.5039 14.0948 24.0277C14.0844 28.9104 12.4694 34.583 10.8875 39.1236C9.2999 43.6536 7.72107 47.0115 7.7066 47.0434C7.44165 47.6072 6.88257 47.9373 6.29898 47.9373C6.07703 47.9373 5.85162 47.8894 5.63754 47.7888Z" fill="#FFFFFF" fill-opacity="1.000000" fill-rule="nonzero"/>
		<path d="M23.2755 47.0431C23.2619 47.0112 21.6821 43.654 20.0947 39.1233C18.5118 34.5828 16.8968 28.9101 16.8861 24.0282C16.8861 23.502 16.9063 22.9856 16.9476 22.4803C17.3852 17.4571 20.229 12.1004 22.9072 7.85883C25.5962 3.63409 28.1678 0.589935 28.1959 0.555176L28.1966 0.555908C28.7509 -0.100739 29.7313 -0.182831 30.3876 0.37146C31.0427 0.926666 31.1255 1.90811 30.5709 2.56485C30.5709 2.56558 30.4267 2.73486 30.1564 3.07086C29.8858 3.40598 29.4953 3.8992 29.0245 4.51962C28.0824 5.76056 26.8147 7.51135 25.5305 9.52994C22.9517 13.553 20.352 18.7197 20.0468 22.7357C20.0131 23.1498 19.9956 23.5817 19.9956 24.0281C19.9884 27.6959 21.1355 32.3766 22.4575 36.4063C23.7754 40.4431 25.25 43.8565 25.8331 45.1554C25.9989 45.527 26.0889 45.7176 26.09 45.7184C26.4556 46.496 26.1219 47.4226 25.3446 47.7893C25.1305 47.8899 24.9058 47.9378 24.6841 47.9378C24.1003 47.9377 23.5404 47.6068 23.2755 47.0431Z" fill="#FFFFFF" fill-opacity="1.000000" fill-rule="nonzero"/>
		<path d="M14.1412 13.8236L9.96295 6.5051C9.60181 5.87222 9.72592 5.078 10.2624 4.58606L14.4408 0.752441C15.0356 0.205963 15.9467 0.205963 16.5415 0.752441L20.7199 4.58606C21.2562 5.07727 21.3803 5.87222 21.0193 6.5051L16.8409 13.8236C16.5654 14.3059 16.0465 14.6071 15.4913 14.6071C14.9363 14.6071 14.4168 14.3058 14.1412 13.8236ZM13.2791 6.04031L15.4908 9.91495L17.7034 6.03958L15.4913 4.00992L13.2791 6.04031Z" fill="#FFFFFF" fill-opacity="1.000000" fill-rule="nonzero"/>
	</g>
</svg>
